<svg width="285" height="38" viewBox="0 0 285 38" fill="none" xmlns="http://www.w3.org/2000/svg">
<path d="M6.388 10.756C6.964 9.82 7.792 9.064 8.872 8.488C9.952 7.912 11.188 7.624 12.58 7.624C14.236 7.624 15.736 8.044 17.08 8.884C18.424 9.724 19.48 10.924 20.248 12.484C21.04 14.044 21.436 15.856 21.436 17.92C21.436 19.984 21.04 21.808 20.248 23.392C19.48 24.952 18.424 26.164 17.08 27.028C15.736 27.868 14.236 28.288 12.58 28.288C11.164 28.288 9.928 28.012 8.872 27.46C7.816 26.884 6.988 26.128 6.388 25.192V28H0.232V1.36H6.388V10.756ZM15.172 17.92C15.172 16.384 14.74 15.184 13.876 14.32C13.036 13.432 11.992 12.988 10.744 12.988C9.52 12.988 8.476 13.432 7.612 14.32C6.772 15.208 6.352 16.42 6.352 17.956C6.352 19.492 6.772 20.704 7.612 21.592C8.476 22.48 9.52 22.924 10.744 22.924C11.968 22.924 13.012 22.48 13.876 21.592C14.74 20.68 15.172 19.456 15.172 17.92ZM30.8216 11.26C31.5416 10.156 32.4416 9.292 33.5216 8.668C34.6016 8.02 35.8016 7.696 37.1216 7.696V14.212H35.4296C33.8936 14.212 32.7416 14.548 31.9736 15.22C31.2056 15.868 30.8216 17.02 30.8216 18.676V28H24.6656V7.912H30.8216V11.26ZM49.208 28.288C47.24 28.288 45.464 27.868 43.88 27.028C42.32 26.188 41.084 24.988 40.172 23.428C39.284 21.868 38.84 20.044 38.84 17.956C38.84 15.892 39.296 14.08 40.208 12.52C41.12 10.936 42.368 9.724 43.952 8.884C45.536 8.044 47.312 7.624 49.28 7.624C51.248 7.624 53.024 8.044 54.608 8.884C56.192 9.724 57.44 10.936 58.352 12.52C59.264 14.08 59.72 15.892 59.72 17.956C59.72 20.02 59.252 21.844 58.316 23.428C57.404 24.988 56.144 26.188 54.536 27.028C52.952 27.868 51.176 28.288 49.208 28.288ZM49.208 22.96C50.384 22.96 51.38 22.528 52.196 21.664C53.036 20.8 53.456 19.564 53.456 17.956C53.456 16.348 53.048 15.112 52.232 14.248C51.44 13.384 50.456 12.952 49.28 12.952C48.08 12.952 47.084 13.384 46.292 14.248C45.5 15.088 45.104 16.324 45.104 17.956C45.104 19.564 45.488 20.8 46.256 21.664C47.048 22.528 48.032 22.96 49.208 22.96ZM75.2619 28L69.1419 19.576V28H62.9859V1.36H69.1419V16.084L75.2259 7.912H82.8219L74.4699 17.992L82.8939 28H75.2619ZM104.176 17.632C104.176 18.208 104.14 18.808 104.068 19.432H90.1358C90.2318 20.68 90.6278 21.64 91.3238 22.312C92.0438 22.96 92.9198 23.284 93.9518 23.284C95.4878 23.284 96.5558 22.636 97.1558 21.34H103.708C103.372 22.66 102.76 23.848 101.872 24.904C101.008 25.96 99.9158 26.788 98.5958 27.388C97.2758 27.988 95.7998 28.288 94.1678 28.288C92.1998 28.288 90.4478 27.868 88.9118 27.028C87.3758 26.188 86.1758 24.988 85.3118 23.428C84.4478 21.868 84.0158 20.044 84.0158 17.956C84.0158 15.868 84.4358 14.044 85.2758 12.484C86.1398 10.924 87.3398 9.724 88.8758 8.884C90.4118 8.044 92.1758 7.624 94.1678 7.624C96.1118 7.624 97.8398 8.032 99.3518 8.848C100.864 9.664 102.04 10.828 102.88 12.34C103.744 13.852 104.176 15.616 104.176 17.632ZM97.8758 16.012C97.8758 14.956 97.5158 14.116 96.7958 13.492C96.0758 12.868 95.1758 12.556 94.0958 12.556C93.0638 12.556 92.1878 12.856 91.4678 13.456C90.7718 14.056 90.3398 14.908 90.1718 16.012H97.8758ZM113.579 11.26C114.299 10.156 115.199 9.292 116.279 8.668C117.359 8.02 118.559 7.696 119.879 7.696V14.212H118.187C116.651 14.212 115.499 14.548 114.731 15.22C113.963 15.868 113.579 17.02 113.579 18.676V28H107.423V7.912H113.579V11.26Z" fill="#8A51BA"/>
<path d="M126.638 11.908C127.286 10.78 128.246 9.844 129.518 9.1C130.814 8.332 132.314 7.948 134.018 7.948C135.77 7.948 137.354 8.368 138.77 9.208C140.21 10.048 141.338 11.236 142.154 12.772C142.97 14.284 143.378 16.048 143.378 18.064C143.378 20.056 142.97 21.832 142.154 23.392C141.338 24.952 140.21 26.164 138.77 27.028C137.354 27.892 135.77 28.324 134.018 28.324C132.338 28.324 130.85 27.952 129.554 27.208C128.282 26.44 127.31 25.492 126.638 24.364V37.36H123.362V8.272H126.638V11.908ZM140.03 18.064C140.03 16.576 139.73 15.28 139.13 14.176C138.53 13.072 137.714 12.232 136.682 11.656C135.674 11.08 134.558 10.792 133.334 10.792C132.134 10.792 131.018 11.092 129.986 11.692C128.978 12.268 128.162 13.12 127.538 14.248C126.938 15.352 126.638 16.636 126.638 18.1C126.638 19.588 126.938 20.896 127.538 22.024C128.162 23.128 128.978 23.98 129.986 24.58C131.018 25.156 132.134 25.444 133.334 25.444C134.558 25.444 135.674 25.156 136.682 24.58C137.714 23.98 138.53 23.128 139.13 22.024C139.73 20.896 140.03 19.576 140.03 18.064ZM150.966 11.476C151.542 10.348 152.358 9.472 153.414 8.848C154.494 8.224 155.802 7.912 157.338 7.912V11.296H156.474C152.802 11.296 150.966 13.288 150.966 17.272V28H147.69V8.272H150.966V11.476ZM179.12 17.38C179.12 18.004 179.084 18.664 179.012 19.36H163.244C163.364 21.304 164.024 22.828 165.224 23.932C166.448 25.012 167.924 25.552 169.652 25.552C171.068 25.552 172.244 25.228 173.18 24.58C174.14 23.908 174.812 23.02 175.196 21.916H178.724C178.196 23.812 177.14 25.36 175.556 26.56C173.972 27.736 172.004 28.324 169.652 28.324C167.78 28.324 166.1 27.904 164.612 27.064C163.148 26.224 161.996 25.036 161.156 23.5C160.316 21.94 159.896 20.14 159.896 18.1C159.896 16.06 160.304 14.272 161.12 12.736C161.936 11.2 163.076 10.024 164.54 9.208C166.028 8.368 167.732 7.948 169.652 7.948C171.524 7.948 173.18 8.356 174.62 9.172C176.06 9.988 177.164 11.116 177.932 12.556C178.724 13.972 179.12 15.58 179.12 17.38ZM175.736 16.696C175.736 15.448 175.46 14.38 174.908 13.492C174.356 12.58 173.6 11.896 172.64 11.44C171.704 10.96 170.66 10.72 169.508 10.72C167.852 10.72 166.436 11.248 165.26 12.304C164.108 13.36 163.448 14.824 163.28 16.696H175.736ZM207.168 7.912C208.704 7.912 210.072 8.236 211.272 8.884C212.472 9.508 213.42 10.456 214.116 11.728C214.812 13 215.16 14.548 215.16 16.372V28H211.92V16.84C211.92 14.872 211.428 13.372 210.444 12.34C209.484 11.284 208.176 10.756 206.52 10.756C204.816 10.756 203.46 11.308 202.452 12.412C201.444 13.492 200.94 15.064 200.94 17.128V28H197.7V16.84C197.7 14.872 197.208 13.372 196.224 12.34C195.264 11.284 193.956 10.756 192.3 10.756C190.596 10.756 189.24 11.308 188.232 12.412C187.224 13.492 186.72 15.064 186.72 17.128V28H183.444V8.272H186.72V11.116C187.368 10.084 188.232 9.292 189.312 8.74C190.416 8.188 191.628 7.912 192.948 7.912C194.604 7.912 196.068 8.284 197.34 9.028C198.612 9.772 199.56 10.864 200.184 12.304C200.736 10.912 201.648 9.832 202.92 9.064C204.192 8.296 205.608 7.912 207.168 7.912ZM222.226 5.068C221.602 5.068 221.074 4.852 220.642 4.42C220.21 3.988 219.994 3.46 219.994 2.836C219.994 2.212 220.21 1.684 220.642 1.252C221.074 0.819999 221.602 0.603999 222.226 0.603999C222.826 0.603999 223.33 0.819999 223.738 1.252C224.17 1.684 224.386 2.212 224.386 2.836C224.386 3.46 224.17 3.988 223.738 4.42C223.33 4.852 222.826 5.068 222.226 5.068ZM223.81 8.272V28H220.534V8.272H223.81ZM246.889 8.272V28H243.613V25.084C242.989 26.092 242.113 26.884 240.985 27.46C239.881 28.012 238.657 28.288 237.313 28.288C235.777 28.288 234.397 27.976 233.173 27.352C231.949 26.704 230.977 25.744 230.257 24.472C229.561 23.2 229.213 21.652 229.213 19.828V8.272H232.453V19.396C232.453 21.34 232.945 22.84 233.929 23.896C234.913 24.928 236.257 25.444 237.961 25.444C239.713 25.444 241.093 24.904 242.101 23.824C243.109 22.744 243.613 21.172 243.613 19.108V8.272H246.889ZM276.144 7.912C277.68 7.912 279.048 8.236 280.248 8.884C281.448 9.508 282.396 10.456 283.092 11.728C283.788 13 284.136 14.548 284.136 16.372V28H280.896V16.84C280.896 14.872 280.404 13.372 279.42 12.34C278.46 11.284 277.152 10.756 275.496 10.756C273.792 10.756 272.436 11.308 271.428 12.412C270.42 13.492 269.916 15.064 269.916 17.128V28H266.676V16.84C266.676 14.872 266.184 13.372 265.2 12.34C264.24 11.284 262.932 10.756 261.276 10.756C259.572 10.756 258.216 11.308 257.208 12.412C256.2 13.492 255.696 15.064 255.696 17.128V28H252.42V8.272H255.696V11.116C256.344 10.084 257.208 9.292 258.288 8.74C259.392 8.188 260.604 7.912 261.924 7.912C263.58 7.912 265.044 8.284 266.316 9.028C267.588 9.772 268.536 10.864 269.16 12.304C269.712 10.912 270.624 9.832 271.896 9.064C273.168 8.296 274.584 7.912 276.144 7.912Z" fill="#707B81"/>
</svg>
